<svg class="tsc-logo" xmlns="http://www.w3.org/2000/svg" fill="#7E1AFF" viewBox="0 0 1377.68 706.13" aria-labelledby="svg-logo-title" role="img"><title id="svg-logo-title">TSC Digital</title><path class="path" d="M1245.92,358.79q19.69,10.86,44.95,10.86t45-10.86a80,80,0,0,0,30.78-29.45q11.06-18.6,11.07-42.08a80,80,0,0,0-11.07-41.63,78.43,78.43,0,0,0-30.78-29.23q-19.72-10.64-45-10.63t-44.95,10.63a78.25,78.25,0,0,0-30.79,29.23,79.88,79.88,0,0,0-11.07,41.63q0,23.49,11.07,42.08A79.78,79.78,0,0,0,1245.92,358.79Z"></path><path class="path" d="M1335.83,477.08q-19.72-10.63-45-10.63t-44.95,10.63a78.25,78.25,0,0,0-30.79,29.23,79.85,79.85,0,0,0-11.07,41.63q0,23.49,11.07,42.08a79.78,79.78,0,0,0,30.79,29.45q19.69,10.86,44.95,10.86t45-10.86A80,80,0,0,0,1366.61,590q11.06-18.6,11.07-42.08a79.94,79.94,0,0,0-11.07-41.63A78.43,78.43,0,0,0,1335.83,477.08Z"></path><path class="path" d="M1039.34,132.4l-3,.41c-1.31.19-2.63.36-3.94.56a287,287,0,0,0-142.24,64.79h0c-1.22,1-2.42,2.07-3.62,3.12l-.9.78c-1.1,1-2.18,2-3.27,2.93-.38.36-.77.71-1.16,1.06-1,.95-2.06,1.91-3.08,2.88l-1.25,1.19c-1,1-2,1.91-3,2.88l-1.27,1.26c-1,1-1.93,1.94-2.89,2.93-.42.42-.83.85-1.24,1.27-1,1-1.92,2-2.86,3-.38.4-.76.81-1.13,1.22-1,1-1.94,2.1-2.9,3.17-.31.34-.61.69-.92,1q-1.51,1.71-3,3.43l-.45.54q-6,7-11.6,14.43l-.15-.26-.32.45c0,.1.07.2.1.3l-1.52,2.05-.46.63c-.89,1.21-1.76,2.43-2.63,3.66-.28.4-.57.8-.85,1.21-.81,1.15-1.61,2.32-2.4,3.48l-1,1.45c-.76,1.14-1.51,2.28-2.25,3.43l-1,1.57c-.73,1.13-1.44,2.28-2.16,3.42l-1,1.62c-.71,1.16-1.41,2.31-2.09,3.48-.32.53-.63,1.07-.95,1.61-.69,1.18-1.38,2.37-2.05,3.57l-.84,1.51c-.2.36-.41.72-.6,1.08-.49.89-1,1.77-1.46,2.67l-.66,1.24c-.72,1.36-1.44,2.72-2.13,4.09-.08.14-.14.28-.21.42q-2.46,4.83-4.74,9.78t-4.38,10l-.48,1.14c-.55,1.34-1.09,2.7-1.62,4.05l-.11.27c-.17.44-.35.87-.52,1.31-.5,1.3-1,2.6-1.47,3.9-.21.6-.44,1.19-.65,1.78-.47,1.28-.92,2.57-1.36,3.85-.22.63-.43,1.25-.64,1.87-.44,1.28-.86,2.57-1.28,3.86l-.6,1.89c-.41,1.31-.82,2.61-1.21,3.92l-.54,1.84c-.39,1.34-.78,2.69-1.15,4-.16.56-.31,1.12-.46,1.68v.06h-.23c-.91,3.37-1.79,6.75-2.58,10.17l.32-.28a286.52,286.52,0,0,0-6,36.49,209,209,0,0,1,28.47,28.82c24.37,30,36.72,68.63,36.72,114.83a173.31,173.31,0,0,1-9.36,57,288.19,288.19,0,0,0,231.2,115.93h69.13V548.66h-69.13c-72,0-130.59-58.57-130.59-130.58A129.76,129.76,0,0,1,963,353.39h0c.65-1.13,1.31-2.24,2-3.35.08-.12.17-.25.24-.38.58-.93,1.16-1.84,1.75-2.75.16-.24.32-.48.47-.72.56-.84,1.13-1.67,1.7-2.5.14-.2.28-.41.43-.61,1.43-2,2.93-4,4.48-6l.47-.58c.62-.77,1.24-1.53,1.87-2.28l.63-.75c.65-.75,1.3-1.5,1.95-2.23l.49-.55c.84-.94,1.7-1.86,2.57-2.77a130.22,130.22,0,0,1,94.37-40.42h69.13V130h-69.13A289.82,289.82,0,0,0,1039.34,132.4Z"></path><path class="path" d="M334.69,623.08c-17.22-25.61-28.14-52.28-32.45-79.29l-.75-4.73q-19.47-.43-30.14-4.83a28.73,28.73,0,0,1-16.44-16.45q-4.64-11.56-4.63-32.63V272.89H321a188,188,0,0,1,29.05-69.51c17-25.29,40.21-46.6,69.13-63.59H250.28V0H65.78V139.79H0v133.1H65.78v257q0,91,46,133.62t135.93,42.66c33.41,0,67-6.32,131.41-34.77A222.65,222.65,0,0,1,334.69,623.08Z"></path><path class="path" d="M788.18,430q-28.48-31.47-70.6-48.29Q670.66,363,608.08,353.22q-87.71-13.85-87.7-54.36a46.13,46.13,0,0,1,.6-7.56,37.53,37.53,0,0,1,2.74-9.21,36.25,36.25,0,0,1,2.45-4.55A40.44,40.44,0,0,1,537.56,266a64.94,64.94,0,0,1,20.71-9.37c1.07-.28,2.16-.53,3.27-.77a82.43,82.43,0,0,1,16.79-1.65q35.89,0,50,13.59.88.84,1.71,1.77,10.17,11.32,12,33.42c.18,2.11.3,4.28.36,6.53,0,1.2,0,2.42,0,3.67H774.7a316.14,316.14,0,0,1,25.47-55.12q5.05-8.66,10.66-17c-.42-.87-.84-1.73-1.28-2.59q-2.13-4.18-4.52-8.25c-1.06-1.81-2.17-3.6-3.31-5.38q-2.57-4-5.41-7.86-3.78-5.16-8-10a174.28,174.28,0,0,0-27.6-25.68,222.3,222.3,0,0,0-50.85-28.14q-56.16-22.57-131-22.57-44,0-80.65,9.16c-3,.74-6,1.52-8.88,2.36Q482,144.23,475,146.71q-10.5,3.72-20.31,8.28A227.28,227.28,0,0,0,419,175.57a173,173,0,0,0-44,44.56,158.82,158.82,0,0,0-23.26,52.76,160.85,160.85,0,0,0-4.18,36.74q0,69.75,53.34,112.58t141,61.8q42.55,9.24,64.88,16.67t31.8,15.9a26.79,26.79,0,0,1,9.49,20.77c0,13.68-5.57,26.46-16.67,34.49s-27.11,12-48,12q-38.46,0-60-16.41c-8.91-6.79-15.18-17.54-18.83-28.42H331.87c.05.35.12.69.18,1q5.61,33.61,27.53,66.24a190.77,190.77,0,0,0,34.17,38.15,247.75,247.75,0,0,0,51.49,33.65q56.16,27.95,133.09,28,73.86,0,129.77-22.56t86.16-61.81q23.25-30.15,28.63-66.21a150.69,150.69,0,0,0,1.63-22.26q0-59-30-95.91C792.47,434.82,790.35,432.38,788.18,430Z"></path></svg>